<svg width="43" height="42" viewBox="0 0 43 42" fill="none" xmlns="http://www.w3.org/2000/svg">
<path d="M21.0523 11.0537C15.2936 11.0537 10.6216 15.7257 10.6216 21.4844C10.6216 27.2432 15.2936 31.9152 21.0523 31.9152C26.811 31.9152 31.483 27.2432 31.483 21.4844C31.483 15.7257 26.811 11.0537 21.0523 11.0537ZM21.0523 28.2505C17.3163 28.2505 14.2862 25.2205 14.2862 21.4844C14.2862 17.7484 17.3163 14.7183 21.0523 14.7183C24.7883 14.7183 27.8184 17.7484 27.8184 21.4844C27.8184 25.2205 24.7883 28.2505 21.0523 28.2505Z" fill="white"/>
<path d="M21.2211 4.14342C26.8819 4.14342 27.5523 4.16735 29.7786 4.26308C31.8476 4.35083 32.9649 4.68588 33.7097 4.96509C34.6946 5.33206 35.4063 5.77879 36.1429 6.48878C36.8878 7.20675 37.343 7.88483 37.7237 8.83415C38.0133 9.55212 38.3609 10.637 38.452 12.6234C38.5513 14.7773 38.5761 15.4235 38.5761 20.8721C38.5761 26.3287 38.5513 26.9748 38.452 29.1208C38.3609 31.1151 38.0133 32.1921 37.7237 32.91C37.343 33.8594 36.8795 34.5454 36.1429 35.2554C35.3981 35.9734 34.6946 36.4121 33.7097 36.7791C32.9649 37.0583 31.8393 37.3934 29.7786 37.4811C27.544 37.5768 26.8737 37.6008 21.2211 37.6008C15.5602 37.6008 14.8898 37.5768 12.6635 37.4811C10.5945 37.3934 9.47724 37.0583 8.73239 36.7791C7.74753 36.4121 7.03578 35.9654 6.29921 35.2554C5.55436 34.5374 5.09917 33.8594 4.71847 32.91C4.4288 32.1921 4.08121 31.1071 3.99017 29.1208C3.89085 26.9669 3.86603 26.3207 3.86603 20.8721C3.86603 15.4155 3.89085 14.7694 3.99017 12.6234C4.08121 10.6291 4.4288 9.55212 4.71847 8.83415C5.09917 7.88483 5.56263 7.19877 6.29921 6.48878C7.04406 5.77081 7.74753 5.33206 8.73239 4.96509C9.47724 4.68588 10.6028 4.35083 12.6635 4.26308C14.8898 4.16735 15.5602 4.14342 21.2211 4.14342ZM21.2211 0.46582C15.4692 0.46582 14.7491 0.489753 12.4898 0.585482C10.2386 0.681211 8.69101 1.03222 7.35028 1.5348C5.95161 2.06131 4.76812 2.75534 3.59291 3.89612C2.40943 5.02891 1.6894 6.16969 1.14318 7.50989C0.621785 8.81022 0.257635 10.294 0.158322 12.4639C0.0590081 14.6497 0.0341797 15.3437 0.0341797 20.8881C0.0341797 26.4324 0.0590081 27.1264 0.158322 29.3042C0.257635 31.4741 0.621785 32.9659 1.14318 34.2582C1.6894 35.6064 2.40943 36.7472 3.59291 37.88C4.76812 39.0128 5.95161 39.7148 7.342 40.2333C8.69101 40.7359 10.2304 41.0869 12.4815 41.1826C14.7409 41.2784 15.4609 41.3023 21.2128 41.3023C26.9647 41.3023 27.6847 41.2784 29.9441 41.1826C32.1952 41.0869 33.7428 40.7359 35.0836 40.2333C36.474 39.7148 37.6575 39.0128 38.8327 37.88C40.0079 36.7472 40.7362 35.6064 41.2741 34.2662C41.7955 32.9659 42.1597 31.4821 42.259 29.3122C42.3583 27.1344 42.3831 26.4403 42.3831 20.896C42.3831 15.3517 42.3583 14.6577 42.259 12.4798C42.1597 10.31 41.7955 8.81819 41.2741 7.52585C40.7527 6.16969 40.0327 5.02891 38.8492 3.89612C37.674 2.76332 36.4905 2.06131 35.1001 1.54277C33.7511 1.0402 32.2118 0.689188 29.9607 0.593459C27.693 0.489753 26.973 0.46582 21.2211 0.46582Z" fill="white"/>
</svg>
