<svg width="42" height="42" viewBox="0 0 42 42" fill="none" xmlns="http://www.w3.org/2000/svg">
<path d="M38.4553 0.46582H3.84746C2.18965 0.46582 0.849121 1.77462 0.849121 3.39277V38.1434C0.849121 39.7615 2.18965 41.0782 3.84746 41.0782H38.4553C40.1131 41.0782 41.4615 39.7615 41.4615 38.1513V3.39277C41.4615 1.77462 40.1131 0.46582 38.4553 0.46582ZM12.898 35.0736H6.86959V15.6875H12.898V35.0736ZM9.8838 13.0462C7.94836 13.0462 6.38574 11.4835 6.38574 9.55602C6.38574 7.62852 7.94836 6.06589 9.8838 6.06589C11.8113 6.06589 13.3739 7.62852 13.3739 9.55602C13.3739 11.4756 11.8113 13.0462 9.8838 13.0462ZM35.4569 35.0736H29.4365V25.6503C29.4365 23.4055 29.3968 20.5103 26.3033 20.5103C23.1701 20.5103 22.6942 22.9613 22.6942 25.4916V35.0736H16.6816V15.6875H22.4562V18.3369H22.5355C23.3367 16.8139 25.3038 15.2037 28.2308 15.2037C34.3306 15.2037 35.4569 19.2173 35.4569 24.4367V35.0736Z" fill="white"/>
</svg>
