<svg width="474" height="162" viewBox="0 0 474 162" fill="none" xmlns="http://www.w3.org/2000/svg">
<path d="M192.541 146.345L187.262 162C186.98 161.47 186.645 161.109 186.258 160.916C185.898 160.755 185.636 160.66 185.471 160.63C185.305 160.6 185.072 160.587 184.769 160.593L154.636 161.225L160.499 155.492C162.074 153.99 163.687 152.27 165.339 150.332C168.669 146.421 171.3 142.674 173.233 139.091C175.97 133.987 177.311 129.312 177.255 125.065C177.216 122.056 176.471 119.745 175.021 118.134C173.71 116.688 172.011 115.985 169.922 116.025C168.493 116.053 167.069 116.465 165.65 117.262C164.258 118.058 163.05 119.202 162.025 120.693C161.485 121.473 161.073 122.551 160.789 123.928C160.504 125.271 160.37 126.579 160.386 127.849L158.991 128.328L156.223 115.286L161.914 112.166C163.497 111.299 165.261 110.613 167.206 110.107C169.178 109.601 171.154 109.328 173.133 109.29C177.282 109.21 180.825 110.011 183.761 111.694C187.084 113.603 189.113 116.374 189.848 120.006C189.964 120.472 190.054 121.039 190.118 121.706C190.181 122.374 190.217 123.009 190.225 123.611C190.264 126.621 189.656 129.559 188.402 132.426C187.147 135.294 185.435 137.835 183.265 140.051L173.376 150.126L185.989 149.783C186.649 149.77 187.211 149.692 187.677 149.549C188.169 149.373 188.674 149.095 189.191 148.717C190.089 147.998 190.778 147.064 191.258 145.918L192.541 146.345Z" fill="white"/>
<path d="M233.673 133.51C233.77 141 232.079 147.271 228.599 152.322C225.119 157.373 220.63 159.952 215.134 160.058C209.143 160.173 204.423 157.639 200.975 152.454C197.835 147.765 196.218 141.842 196.125 134.686C196.03 127.429 197.611 121.11 200.867 115.729C204.366 109.975 208.836 107.046 214.277 106.941C219.911 106.832 224.519 109.269 228.103 114.25C231.713 119.198 233.57 125.618 233.673 133.51ZM221.543 132.941C221.475 127.758 221.007 123.485 220.139 120.124C218.98 115.597 217.206 113.357 214.815 113.403C214.623 113.44 214.472 113.46 214.362 113.462C212.304 113.736 210.685 116.092 209.506 120.53C208.484 124.396 208.004 128.687 208.066 133.402C208.133 138.551 208.671 142.923 209.68 146.516C210.976 151.073 212.834 153.329 215.252 153.282C217.011 153.248 218.398 152.101 219.413 149.84C220.268 147.95 220.866 145.313 221.206 141.928C221.474 139.247 221.586 136.251 221.543 132.941Z" fill="white"/>
<path d="M275.084 144.752L269.804 160.408C269.522 159.878 269.188 159.516 268.8 159.323C268.441 159.163 268.179 159.068 268.013 159.037C267.848 159.007 267.614 158.995 267.312 159.001L237.179 159.632L243.042 153.9C244.617 152.398 246.23 150.677 247.881 148.739C251.211 144.828 253.843 141.081 255.775 137.498C258.512 132.395 259.853 127.72 259.798 123.473C259.759 120.463 259.014 118.153 257.564 116.542C256.253 115.095 254.553 114.392 252.465 114.432C251.036 114.46 249.611 114.872 248.192 115.669C246.801 116.465 245.593 117.609 244.567 119.1C244.028 119.88 243.616 120.958 243.331 122.335C243.047 123.679 242.912 124.986 242.929 126.257L241.533 126.735L238.766 113.693L244.456 110.573C246.039 109.706 247.803 109.02 249.749 108.514C251.721 108.008 253.697 107.736 255.675 107.698C259.825 107.617 263.368 108.419 266.304 110.101C269.627 112.011 271.656 114.781 272.391 118.413C272.507 118.879 272.596 119.446 272.66 120.114C272.724 120.781 272.76 121.416 272.767 122.018C272.807 125.028 272.199 127.966 270.944 130.834C269.69 133.701 267.977 136.243 265.807 138.459L255.919 148.534L268.532 148.19C269.191 148.177 269.754 148.099 270.219 147.957C270.712 147.78 271.217 147.503 271.734 147.125C272.632 146.405 273.32 145.472 273.8 144.325L275.084 144.752Z" fill="white"/>
<path d="M315.407 139.509C315.479 144.993 313.615 149.645 309.816 153.464C306.045 157.25 301.507 159.194 296.203 159.296C292.85 159.361 289.587 158.889 286.413 157.879C283.266 156.87 280.802 155.579 279.023 154.008L284.184 141.917L285.306 142.598C285.232 143.202 285.199 143.838 285.207 144.507C285.217 145.276 285.268 146.011 285.36 146.711C285.478 147.378 285.652 148.044 285.881 148.708C286.535 150.435 287.72 151.716 289.436 152.553C290.902 153.261 292.693 153.594 294.809 153.553C297.31 153.505 299.47 152.61 301.289 150.869C303.216 149.026 304.162 146.716 304.126 143.941C304.09 141.199 302.99 139.046 300.826 137.482C298.855 136.048 296.551 135.357 293.913 135.408C291.934 135.446 289.372 136.047 286.226 137.212C283.627 138.165 282.137 138.829 281.757 139.205C282.707 136.142 283.414 133.47 283.879 131.186C284.344 128.869 284.734 126.085 285.049 122.835C285.196 121.494 285.29 120.221 285.329 119.016C285.368 117.811 285.379 116.574 285.363 115.303C285.347 114.099 285.299 112.528 285.219 110.589C285.166 108.617 285.138 107.514 285.135 107.28C285.524 107.607 285.884 107.834 286.216 107.961C286.574 108.055 286.878 108.132 287.126 108.194C287.291 108.191 287.455 108.188 287.62 108.185L308.025 107.791C308.658 107.779 309.343 107.649 310.082 107.4C310.328 107.329 310.547 107.241 310.738 107.137C310.847 107.068 311.066 106.947 311.393 106.773L308.72 119.97L307.813 119.987C307.587 119.523 307.363 119.177 307.14 118.947C306.611 118.422 306.003 118.166 305.316 118.179L289.528 118.484L289.56 120.992C289.566 121.427 289.53 121.845 289.453 122.248C289.375 122.618 289.324 122.903 289.299 123.104C289.198 123.775 289.148 124.127 289.148 124.161C289.016 124.598 288.924 124.934 288.873 125.169C289.501 124.856 290.926 124.528 293.148 124.184C295.397 123.806 297.36 123.601 299.036 123.568C303.928 123.474 307.863 124.853 310.841 127.706C313.82 130.558 315.342 134.493 315.407 139.509Z" fill="white"/>
<path d="M441.866 100.887H411.486C411.009 100.887 410.575 100.691 410.184 100.301C409.794 99.9108 409.599 99.4771 409.599 99V95.422C409.599 94.9016 409.794 94.4679 410.184 94.1209C410.575 93.7306 411.009 93.5354 411.486 93.5354C411.702 93.5354 411.854 93.4921 411.941 93.4053C412.071 93.3186 412.136 93.0801 412.136 92.6897C412.136 92.1693 411.984 91.4537 411.681 90.543L394.832 30.3678C394.355 28.5029 393.531 26.7031 392.36 24.9683C391.189 23.1902 389.909 22.3011 388.521 22.3011C388.044 22.3011 387.611 22.1059 387.22 21.7156C386.83 21.3253 386.635 20.8916 386.635 20.4145V17.2269C386.635 16.7498 386.83 16.3161 387.22 15.9258C387.611 15.5355 388.044 15.3403 388.521 15.3403H425.277C425.754 15.3403 426.188 15.5355 426.578 15.9258C426.968 16.3161 427.164 16.7498 427.164 17.2269V20.4145C427.164 20.7615 427.012 21.1301 426.708 21.5205C426.405 21.9108 426.058 22.1493 425.667 22.2361C423.065 22.6264 421.764 24.4479 421.764 27.7006C421.764 29.2619 422.024 30.9316 422.545 32.7098L424.041 38.1093C425.602 44.0509 427.207 49.9925 428.855 55.9341L434.059 75.1902L447.005 31.6689C447.569 29.6739 447.851 27.6789 447.851 25.6839C447.851 23.7323 446.832 22.518 444.793 22.0409C444.403 21.9542 444.056 21.7156 443.752 21.3253C443.449 20.935 443.297 20.5663 443.297 20.2194V17.2269C443.297 16.7498 443.492 16.3161 443.883 15.9258C444.273 15.5355 444.707 15.3403 445.184 15.3403H468.603C469.08 15.3403 469.514 15.5355 469.904 15.9258C470.295 16.3161 470.49 16.7498 470.49 17.2269V20.4145C470.49 20.8916 470.295 21.3253 469.904 21.7156C469.514 22.1059 469.08 22.3011 468.603 22.3011C467.172 22.3011 465.676 23.3637 464.114 25.4888C462.683 27.744 461.664 29.8908 461.057 31.9291L441.671 91.1284C441.541 91.6055 441.476 92.0826 441.476 92.5596C441.476 93.0367 441.562 93.4053 441.736 93.6656C441.909 93.8824 442.126 94.0342 442.386 94.1209C442.69 94.1643 442.993 94.3812 443.297 94.7715C443.601 95.1618 443.752 95.5304 443.752 95.8774V99C443.752 99.4771 443.557 99.9108 443.167 100.301C442.777 100.691 442.343 100.887 441.866 100.887ZM441.866 99V95.8774C441.562 95.7907 441.259 95.6606 440.955 95.4871C440.652 95.3136 440.348 94.9666 440.044 94.4462C439.741 93.8824 439.589 93.2535 439.589 92.5596C439.589 91.9525 439.676 91.3453 439.849 90.7381C440.24 89.437 446.702 69.6389 459.235 31.3436C460.71 27.4404 462.206 24.6431 463.724 22.9516C465.285 21.2602 466.912 20.4145 468.603 20.4145V17.2269H445.184V20.2194C448.22 20.9133 449.737 22.7348 449.737 25.6839C449.737 28.0259 449.434 30.1943 448.827 32.1893L433.929 82.151L427.034 56.4546C425.212 49.7323 423.607 43.769 422.22 38.5647C420.832 33.3603 420.094 30.4979 420.008 29.9775C419.921 29.4137 419.878 28.6547 419.878 27.7006C419.878 24.7515 420.788 22.6481 422.61 21.3903C423.217 21 424.106 20.6748 425.277 20.4145V17.2269H388.521V20.4145C390.126 20.4145 391.666 21.2386 393.14 22.8866C394.658 24.5346 395.829 26.8549 396.653 29.8474L413.828 91.2586C413.958 91.7356 414.023 92.2127 414.023 92.6897C414.023 93.1234 413.936 93.5571 413.762 93.9908C413.372 94.945 412.613 95.422 411.486 95.422V99H441.866Z" fill="white"/>
<path d="M107.561 89.3064H89.2493C88.9289 89.3064 88.6375 89.1753 88.3753 88.913C88.1131 88.6508 87.982 88.3595 87.982 88.039V85.2857C87.982 84.9652 88.1131 84.6738 88.3753 84.4116C88.6375 84.1494 88.9289 84.0183 89.2493 84.0183C90.3856 84.0183 91.216 83.5667 91.7404 82.6635C92.2649 81.7894 92.5271 80.6386 92.5271 79.211C92.5271 77.2006 92.1338 75.3942 91.3471 73.7918C90.5604 72.2185 89.5261 70.5869 88.2442 68.897L62.6342 34.022L62.5905 77.3317C62.5905 79.2255 62.809 80.726 63.246 81.8331C63.7122 82.9694 64.7028 83.7124 66.2178 84.062C66.48 84.1203 66.7131 84.2805 66.9171 84.5427C67.121 84.805 67.223 85.0526 67.223 85.2857V88.039C67.223 88.3595 67.0919 88.6508 66.8297 88.913C66.5675 89.1753 66.2761 89.3064 65.9556 89.3064H48.2996C47.9791 89.3064 47.6877 89.1753 47.4255 88.913C47.1633 88.6508 47.0322 88.3595 47.0322 88.039V85.2857C47.0322 84.9943 47.1487 84.7175 47.3818 84.4553C47.6149 84.2222 47.8771 84.0766 48.1685 84.0183C48.722 83.96 49.1445 83.8872 49.4359 83.7998C49.7563 83.7415 50.0623 83.6104 50.3536 83.4065C50.9363 83.0277 51.4171 81.7312 51.7958 79.5169C51.9415 78.4971 52.0289 77.5065 52.058 76.5451C52.1163 75.5836 52.1454 59.8359 52.1454 29.302C52.1454 25.6893 51.7521 23.4458 50.9655 22.5718C50.4993 21.9891 49.7126 21.6249 48.6055 21.4792C48.3141 21.4209 48.0519 21.2607 47.8188 20.9985C47.6149 20.7362 47.5129 20.474 47.5129 20.2118V17.4585C47.5129 17.138 47.644 16.8467 47.9062 16.5845C48.1685 16.3222 48.4598 16.1911 48.7803 16.1911H83.5242C83.8447 16.1911 84.1361 16.3222 84.3983 16.5845C84.6605 16.8467 84.7916 17.138 84.7916 17.4585V20.2118C84.7916 20.5614 84.6605 20.8674 84.3983 21.1296C84.1361 21.3627 83.8447 21.4792 83.5242 21.4792C83.466 21.4792 83.3349 21.552 83.1309 21.6977C82.6648 22.1347 82.4317 22.5863 82.4317 23.0525C82.4317 24.014 82.825 25.0046 83.6117 26.0243L93.4885 40.4026V27.685C93.4885 25.7912 93.1972 24.349 92.6145 23.3584C92.0609 22.3678 90.9392 21.7414 89.2493 21.4792C88.958 21.4209 88.6958 21.2607 88.4627 20.9985C88.2587 20.7362 88.1568 20.474 88.1568 20.2118V17.4585C88.1568 17.138 88.2879 16.8467 88.5501 16.5845C88.8123 16.3222 89.1037 16.1911 89.4242 16.1911H107.736C108.056 16.1911 108.348 16.3222 108.61 16.5845C108.872 16.8467 109.003 17.138 109.003 17.4585V20.2118C109.003 20.4449 108.901 20.6925 108.697 20.9548C108.493 21.217 108.26 21.3772 107.998 21.4355L106.556 21.7414C106.41 21.7997 106.221 21.9308 105.988 22.1347C105.755 22.3387 105.536 22.6009 105.332 22.9214C104.749 23.8246 104.371 24.9754 104.196 26.3739C104.021 27.7724 103.934 29.1418 103.934 30.482V77.3754C103.934 79.1818 104.181 80.6969 104.677 81.9205C105.201 83.1442 106.206 83.8435 107.692 84.0183C107.983 84.0766 108.246 84.2222 108.479 84.4553C108.712 84.7175 108.828 84.9943 108.828 85.2857V88.039C108.828 88.3595 108.697 88.6508 108.435 88.913C108.173 89.1753 107.881 89.3064 107.561 89.3064ZM107.561 88.039V85.2857C106.716 85.1983 105.929 84.9215 105.201 84.4553C104.502 84.0183 103.963 83.421 103.584 82.6635C103.205 81.906 102.958 81.0174 102.841 79.9976C102.724 78.9779 102.666 78.1038 102.666 77.3754V30.482C102.666 29.1709 102.754 27.7287 102.928 26.1554C103.103 24.5821 103.555 23.2565 104.283 22.1784C104.895 21.3044 105.565 20.7508 106.294 20.5177L107.736 20.2118V17.4585H89.4242V20.2118C90.3856 20.3575 91.2014 20.6051 91.8715 20.9548C92.5708 21.3044 93.1681 21.8725 93.6634 22.6592C94.1587 23.4458 94.4646 24.1597 94.5811 24.8006C94.6977 25.4416 94.7559 26.4031 94.7559 27.685V44.467L82.5628 26.7236C81.6304 25.3251 81.1643 24.1014 81.1643 23.0525C81.1643 22.5572 81.31 22.091 81.6013 21.654C82.184 20.6925 82.825 20.2118 83.5242 20.2118V17.4585H48.7803V20.2118C50.3245 20.4158 51.5045 21.0713 52.3203 22.1784C52.7281 22.7029 53.0049 23.6498 53.1506 25.0191C53.3254 26.3885 53.4128 27.8161 53.4128 29.302V74.2288C53.4128 80.9882 52.2328 84.5864 49.8729 85.0235C49.6107 85.1109 49.0862 85.1983 48.2996 85.2857V88.039H65.9556V85.2857C65.0233 85.0817 64.2512 84.7758 63.6393 84.3679C63.0275 83.9892 62.5468 83.421 62.1971 82.6635C61.8767 81.906 61.6436 81.1193 61.4979 80.3035C61.3814 79.4877 61.3231 78.4971 61.3231 77.3317L61.3668 30.1761L89.2493 68.1541C90.8809 70.3684 91.9735 72.1165 92.5271 73.3984C93.372 75.2048 93.7945 77.1423 93.7945 79.211C93.7945 82.2993 92.8039 84.2222 90.8227 84.9798C90.2982 85.1837 89.7738 85.2857 89.2493 85.2857V88.039H107.561ZM137.716 89.3064H109.047C108.726 89.3064 108.435 89.1753 108.173 88.913C107.911 88.6508 107.779 88.3595 107.779 88.039V85.3731C107.779 85.14 107.881 84.8924 108.085 84.6301C108.289 84.3679 108.508 84.2077 108.741 84.1494C109.003 84.0911 109.309 84.0183 109.659 83.9309L109.877 83.8872C110.314 83.7706 110.576 83.6687 110.664 83.5813C112.062 82.7363 112.762 80.5949 112.762 77.1569V26.3302C112.762 24.6113 112.572 23.373 112.193 22.6155C111.815 21.858 110.941 21.4792 109.571 21.4792C109.251 21.4792 108.959 21.3481 108.697 21.0859C108.435 20.8237 108.304 20.5323 108.304 20.2118V17.4585C108.304 17.138 108.435 16.8467 108.697 16.5845C108.959 16.3222 109.251 16.1911 109.571 16.1911H150.608C156.086 16.1911 159.815 15.4773 161.796 14.0497C162.175 13.7583 162.525 13.6126 162.845 13.6126C163.02 13.6126 163.18 13.6563 163.326 13.7438C163.705 13.9477 163.894 14.3265 163.894 14.88L160.354 34.8523C160.15 35.6681 159.757 36.076 159.174 36.076C158.737 36.076 158.344 35.8138 157.994 35.2894C154.148 28.763 148.394 25.4999 140.732 25.4999C138.255 25.4999 136.492 26.0389 135.443 27.1169C134.395 28.1949 133.87 29.9867 133.87 32.4924V38.873H140.906C142.451 38.873 143.689 38.334 144.621 37.256C145.553 36.178 146.02 34.8378 146.02 33.2353V32.1865C146.02 31.9825 146.107 31.764 146.282 31.5309C146.486 31.2687 146.675 31.0939 146.85 31.0065L148.598 30.3946C148.802 30.3364 148.991 30.3072 149.166 30.3072C149.778 30.3072 150.157 30.6714 150.303 31.3998L154.28 58.3646C154.28 58.6268 154.192 58.889 154.017 59.1512C153.842 59.4135 153.58 59.5737 153.231 59.632L150.696 60.1127C150.463 60.1127 150.215 60.0253 149.953 59.8505C149.72 59.6465 149.56 59.3698 149.472 59.0201C149.152 57.1263 148.409 55.3199 147.243 53.601C146.107 51.8528 144.694 50.5417 143.004 49.6677C142.043 49.1141 141.169 48.8373 140.382 48.8373H134.045V78.7739C134.045 79.648 134.234 80.5658 134.613 81.5272C134.992 82.4887 135.487 83.1734 136.099 83.5813C136.186 83.6395 136.449 83.7415 136.886 83.8872C137.352 83.9746 137.716 84.0474 137.978 84.1057C138.24 84.1931 138.474 84.3679 138.678 84.6301C138.881 84.8924 138.983 85.14 138.983 85.3731V88.039C138.983 88.3595 138.852 88.6508 138.59 88.913C138.328 89.1753 138.037 89.3064 137.716 89.3064ZM137.716 88.039V85.3731C136.551 85.1109 135.793 84.8778 135.443 84.6738C135.123 84.4699 134.715 84.062 134.22 83.4502C133.608 82.547 133.215 81.6438 133.04 80.7406C132.923 80.1579 132.836 79.5023 132.778 78.7739V47.5699H140.382C141.227 47.5699 142.276 47.8904 143.529 48.5314C144.811 49.1432 145.932 49.9736 146.894 51.0225C147.884 52.0422 148.773 53.4553 149.56 55.2617C150.23 56.7184 150.623 57.913 150.74 58.8453L153.012 58.4083L149.035 31.5746L147.287 32.1865V33.2353C147.287 35.2748 146.617 36.9938 145.277 38.3923C144.14 39.5577 142.684 40.1404 140.906 40.1404H132.603V32.4924C132.603 31.0356 132.778 29.7536 133.127 28.6465C134.001 25.7038 136.536 24.2325 140.732 24.2325C145.597 24.2325 149.72 25.4416 153.1 27.8598C155.547 29.608 157.339 31.5163 158.475 33.585L159.087 34.6338L162.583 15.0111C161.593 15.8269 160.252 16.4096 158.562 16.7593C156.873 17.1089 155.299 17.3128 153.842 17.3711C152.415 17.4294 151.337 17.4585 150.608 17.4585H109.571V20.2118C110.445 20.2118 111.115 20.2992 111.582 20.474C112.077 20.6197 112.558 21.013 113.024 21.654C113.49 22.295 113.767 22.936 113.854 23.5769C113.971 24.1888 114.029 25.1066 114.029 26.3302V77.1569C114.029 78.5845 113.927 79.7645 113.723 80.6969C113.548 81.6292 113.155 82.547 112.543 83.4502C112.077 84.062 111.669 84.4699 111.319 84.6738C110.999 84.8778 110.241 85.1109 109.047 85.3731V88.039H137.716ZM192.869 91.4915C187.683 91.4915 182.73 90.3261 178.01 87.9953C173.29 85.6644 169.43 82.5761 166.429 78.7302C163.457 74.9135 161.257 70.6452 159.83 65.9252C158.402 61.1762 157.688 56.3543 157.688 51.4595C157.688 46.6522 158.533 41.9177 160.223 37.256C161.942 32.5652 164.419 28.3843 167.653 24.7132C170.916 21.013 174.878 18.1723 179.54 16.1911C181.871 15.2297 184.158 14.5595 186.401 14.1808C188.674 13.802 191.063 13.6126 193.569 13.6126C199.454 13.6126 205.106 15.2005 210.525 18.3763C214.604 20.7945 217.955 23.8392 220.577 27.5102C223.228 31.1521 225.18 35.1583 226.433 39.5286C227.686 43.8989 228.313 48.342 228.313 52.858C228.313 58.0441 227.336 63.1719 225.384 68.2415C223.432 73.311 220.606 77.7542 216.906 81.5709C213.206 85.3877 208.704 88.141 203.402 89.8308C200.022 90.9379 196.511 91.4915 192.869 91.4915ZM192.957 81.265C194.18 81.265 195.331 80.9008 196.409 80.1724C198.682 78.7448 200.488 76.3994 201.828 73.1362C203.169 69.8731 204.116 66.3623 204.669 62.6038C205.252 58.8162 205.543 55.553 205.543 52.8143C205.543 50.163 205.339 47.2057 204.931 43.9426C204.553 40.6503 203.883 37.5037 202.921 34.5027C201.96 31.5018 200.619 29.0107 198.9 27.0295C197.997 25.9806 197.065 25.194 196.103 24.6695C195.171 24.116 194.064 23.8392 192.782 23.8392C191.209 23.8392 189.781 24.4073 188.499 25.5436C186.489 27.2043 184.901 29.5788 183.735 32.6672C182.57 35.7555 181.725 39.0333 181.201 42.5004C180.705 45.9675 180.458 49.0267 180.458 51.678C180.458 54.4167 180.662 57.5634 181.07 61.1179C181.507 64.6724 182.279 68.0521 183.386 71.257C184.493 74.4619 186.023 77.0112 187.975 78.905C189.664 80.4783 191.325 81.265 192.957 81.265ZM192.869 90.2241C196.249 90.2241 199.643 89.6851 203.052 88.6071C209.753 86.655 215.304 82.5178 219.703 76.1954C224.598 68.9699 227.045 61.1907 227.045 52.858C227.045 48.9539 226.506 44.904 225.428 40.7086C222.719 30.9482 217.532 23.8683 209.87 19.4689C204.684 16.4096 199.25 14.88 193.569 14.88H192.476C188.164 14.88 184.012 15.7104 180.021 17.3711C175.621 19.1484 171.746 21.9454 168.396 25.7621C162.102 33.279 158.956 41.8448 158.956 51.4595C158.956 54.7227 159.32 58.1315 160.048 61.686C162.758 73.7772 168.905 82.1536 178.491 86.8153C183.24 89.0879 188.033 90.2241 192.869 90.2241ZM192.957 82.5324C191.005 82.5324 189.053 81.6292 187.101 79.8228C183.226 76.1226 180.734 69.4652 179.627 59.8505C179.336 57.0244 179.19 54.3002 179.19 51.678C179.19 44.0154 180.458 37.1977 182.992 31.225C184.362 28.1658 185.935 25.9369 187.712 24.5384C189.344 23.2273 191.034 22.5718 192.782 22.5718H193.219C195.55 22.5718 197.764 23.7809 199.862 26.1991C202.979 29.7245 205.077 35.3622 206.155 43.1122C206.592 46.4628 206.811 49.6968 206.811 52.8143C206.811 59.4572 205.82 65.6484 203.839 71.3881C202.032 76.4285 199.774 79.7208 197.065 81.265C195.695 82.1099 194.326 82.5324 192.957 82.5324ZM270.617 89.3064H238.233C237.913 89.3064 237.621 89.1753 237.359 88.913C237.097 88.6508 236.966 88.3595 236.966 88.039V85.3294C236.966 85.038 237.082 84.7612 237.315 84.499C237.548 84.2659 237.811 84.1203 238.102 84.062C238.393 84.0329 238.714 84.0183 239.063 84.0183C240.287 84.0183 241.423 83.3919 242.472 82.1391C243.23 81.265 243.652 80.3181 243.74 79.2984C243.827 78.5117 243.871 77.6959 243.871 76.851V26.5925C241.19 26.8255 238.83 27.7142 236.791 29.2583C234.751 30.7734 233.076 32.7983 231.765 35.3331C230.774 37.1103 230.031 38.9167 229.536 40.7523C229.449 41.1019 229.289 41.3641 229.055 41.5389C228.822 41.6846 228.589 41.7574 228.356 41.7574C228.269 41.7574 227.584 41.6117 226.302 41.3204C225.982 41.233 225.734 41.0582 225.559 40.796C225.384 40.5337 225.297 40.2715 225.297 40.0093L229.536 15.4045C229.711 14.5887 230.09 14.1808 230.672 14.1808C231.022 14.1808 231.386 14.3847 231.765 14.7926C232.523 15.725 233.615 16.1911 235.043 16.1911H278.571C280.727 16.1911 282.49 15.6667 283.859 14.6178C284.238 14.3556 284.587 14.2245 284.908 14.2245C285.083 14.2245 285.243 14.2682 285.389 14.3556C285.738 14.5595 285.913 14.9092 285.913 15.4045L285.869 15.8415L281.98 36.6005C281.805 37.4163 281.441 37.8241 280.887 37.8241C280.479 37.8241 280.086 37.5911 279.707 37.1249C277.755 34.357 275.556 31.9971 273.108 30.045C270.69 28.0929 267.907 26.9421 264.761 26.5925L264.805 73.311C264.805 74.6513 264.848 75.9769 264.936 77.288C265.023 78.5991 265.242 79.75 265.591 80.7406C265.941 81.7603 266.494 82.5615 267.252 83.1442C268.039 83.7269 269.16 84.0183 270.617 84.0183C270.938 84.0183 271.229 84.1494 271.491 84.4116C271.753 84.6738 271.884 84.9652 271.884 85.2857V88.039C271.884 88.3595 271.753 88.6508 271.491 88.913C271.229 89.1753 270.938 89.3064 270.617 89.3064ZM270.617 88.039V85.2857C269.364 85.2857 268.315 85.1109 267.47 84.7612C266.655 84.4116 265.897 83.7124 265.198 82.6635C264.528 81.6438 264.076 80.4638 263.843 79.1236C263.639 77.7833 263.537 76.312 263.537 74.7095L263.493 25.2814C266.349 25.2814 268.84 25.8932 270.967 27.1169C274.492 29.2146 277.347 31.764 279.533 34.7649L280.712 36.3819L284.602 15.623C283.815 16.1766 283 16.6136 282.155 16.9341C281.339 17.2254 280.683 17.3857 280.188 17.4148C279.722 17.4439 271.928 17.4585 256.807 17.4585C242.268 17.4585 234.926 17.4585 234.781 17.4585C234.635 17.4294 234.402 17.4002 234.081 17.3711C232.799 17.2837 231.707 16.701 230.804 15.623L226.564 40.0967L228.313 40.49C228.662 38.8585 229.434 36.9355 230.629 34.7212C232.668 30.8462 235.48 28.0784 239.063 26.4176C240.753 25.6601 242.778 25.2814 245.138 25.2814V75.5836C245.138 77.5939 245.065 79.0798 244.92 80.0413C244.774 81.0319 244.279 82.008 243.434 82.9694C242.064 84.5136 240.608 85.2857 239.063 85.2857C238.714 85.2857 238.437 85.3003 238.233 85.3294V88.039H270.617ZM284.209 91.273C284.005 91.273 283.83 91.2293 283.684 91.1419C283.335 90.9379 283.16 90.5446 283.16 89.9619L284.995 65.0512C285.025 64.7307 285.17 64.4539 285.432 64.2208C285.695 63.9877 285.971 63.8712 286.263 63.8712H288.929C289.162 63.8712 289.395 63.9732 289.628 64.1771C289.89 64.3519 290.065 64.5413 290.152 64.7452C291.289 68.7951 292.716 72.0582 294.435 74.5347C296.183 77.0404 299.053 78.8613 303.045 79.9976C304.735 80.4929 306.424 80.7406 308.114 80.7406C309.251 80.7406 310.387 80.6532 311.523 80.4783C313.126 80.2161 314.641 79.444 316.068 78.1621C317.088 77.2589 317.86 76.1226 318.385 74.7532C318.938 73.413 319.215 72.0582 319.215 70.6889C319.215 68.358 318.326 66.4351 316.549 64.9201C315.733 64.3082 314.16 63.6235 311.829 62.866L303.744 60.2438C301.501 59.5154 299.272 58.7579 297.057 57.9713C295.688 57.476 294.333 56.7621 292.993 55.8298C291.682 54.8975 290.56 53.9214 289.628 52.9017C287.647 50.8331 286.073 48.5023 284.908 45.9092C283.743 43.3162 283.16 40.5629 283.16 37.6493C283.16 35.3768 283.524 33.0168 284.252 30.5694C286.03 24.451 288.929 20.0807 292.949 17.4585C297.203 14.6907 302.637 13.3067 309.251 13.3067C312.98 13.3067 316.651 13.7438 320.264 14.6178C322.041 14.9966 323.789 15.521 325.508 16.1911C325.858 16.3077 326.193 16.4388 326.513 16.5845C327.329 16.9924 327.985 17.1963 328.48 17.1963C328.626 17.1963 329.048 16.9924 329.747 16.5845C330.068 16.3514 330.388 16.1183 330.709 15.8852C331.058 15.6521 331.393 15.4336 331.714 15.2297C332.034 15.0257 332.326 14.9237 332.588 14.9237C332.792 14.9237 332.981 14.982 333.156 15.0986C333.477 15.3025 333.637 15.6667 333.637 16.1911L330.315 34.8523C330.082 35.6973 329.675 36.1197 329.092 36.1197C328.626 36.1197 328.232 35.7992 327.912 35.1583C326.95 33.1188 325.494 31.1958 323.542 29.3895C319.667 25.8349 316.025 24.0577 312.616 24.0577C310.897 24.0577 309.309 24.3782 307.852 25.0191C306.424 25.631 305.274 26.5342 304.4 27.7287C303.526 28.9233 303.088 30.3655 303.088 32.0553C303.088 33.1916 303.307 34.124 303.744 34.8523C304.181 35.5516 304.778 36.1343 305.536 36.6005C306.497 37.2414 307.91 37.8679 309.775 38.4797C311.436 39.0333 313.563 39.8054 316.156 40.796C318.166 41.5826 320.206 42.3256 322.274 43.0248C325.625 44.0737 328.8 45.5742 331.801 47.5262C333.724 48.8373 335.268 50.4543 336.434 52.3773C338.648 56.0192 339.755 60.2293 339.755 65.0075C339.755 70.4558 338.255 75.2631 335.254 79.4295C332.282 83.625 328.276 86.757 323.236 88.8256C321.254 89.5832 318.865 90.1659 316.068 90.5738C313.271 90.9817 310.897 91.1856 308.945 91.1856C305.798 91.1856 302.651 90.9088 299.505 90.3552C297.057 89.9182 294.61 89.5103 292.163 89.1316L291.507 89.0004C290.837 88.8839 290.487 88.8111 290.458 88.7819C290.021 88.6945 289.628 88.6508 289.278 88.6508C288.579 88.6508 287.953 88.8693 287.399 89.3064C287.108 89.5103 286.831 89.7288 286.569 89.9619C286.103 90.3115 285.607 90.6612 285.083 91.0108C284.762 91.1856 284.471 91.273 284.209 91.273ZM308.945 89.9182C310.664 89.9182 312.893 89.7143 315.631 89.3064C318.37 88.9276 320.745 88.374 322.755 87.6457C327.154 85.8101 330.68 83.2025 333.331 79.8228C336.769 75.7147 338.488 70.7763 338.488 65.0075C338.488 62.7932 338.211 60.6372 337.658 58.5394C336.55 54.14 334.365 50.8185 331.102 48.5751C328.247 46.6813 325.173 45.2391 321.881 44.2485C317.481 42.7335 313.271 41.2039 309.251 39.6597C307.153 39.1935 305.303 38.2175 303.7 36.7316C302.447 35.3622 301.821 33.8035 301.821 32.0553L301.865 31.3124C302.098 29.2438 302.885 27.452 304.225 25.9369C306.468 23.8392 309.265 22.7903 312.616 22.7903C314.51 22.7903 316.301 23.1982 317.991 24.014C320.613 25.3251 323.352 27.4228 326.207 30.3072C327.227 31.3561 328.174 32.7983 329.048 34.6338L332.326 16.3222L329.704 18.1141C329.325 18.3471 328.917 18.4637 328.48 18.4637C327.839 18.4637 326.892 18.1723 325.639 17.5896L325.071 17.3711C323.41 16.7593 321.706 16.2494 319.958 15.8415C316.462 14.9966 312.893 14.5741 309.251 14.5741C306.454 14.5741 303.584 14.8655 300.641 15.4482C298.543 16.0017 296.548 16.8321 294.654 17.9393C289.38 21.2024 286.117 26.4031 284.864 33.5412C284.573 34.9106 284.427 36.28 284.427 37.6493C284.427 40.1841 284.923 42.6606 285.913 45.0789C288.244 50.4689 292.09 54.373 297.451 56.7913L300.204 57.709C305.099 59.3989 309.251 60.7828 312.659 61.8608L315.369 62.7786C316.068 63.0408 316.738 63.4341 317.379 63.9586C319.448 65.6484 320.482 67.8919 320.482 70.6889C320.482 71.3298 320.424 71.9854 320.307 72.6555C319.841 75.3068 318.705 77.4628 316.899 79.1236C315.034 80.6969 313.286 81.5709 311.654 81.7457C310.052 81.9205 308.872 82.008 308.114 82.008C306.337 82.008 304.531 81.7457 302.695 81.2213C300.16 80.522 297.961 79.4732 296.096 78.0747C293.59 76.0643 291.653 73.0634 290.283 69.0718C290.196 68.9262 289.948 68.2561 289.541 67.0615L288.929 65.1386H286.263L284.427 89.9182C284.777 89.7143 285.258 89.3646 285.869 88.8693L286.962 88.1264C287.399 87.7768 287.778 87.5582 288.098 87.4708C288.419 87.4126 288.812 87.3834 289.278 87.3834C292.833 87.937 296.314 88.4906 299.723 89.0441C303.132 89.6269 306.206 89.9182 308.945 89.9182ZM402.207 89.3064H370.479C370.158 89.3064 369.867 89.1753 369.605 88.913C369.342 88.6508 369.211 88.3595 369.211 88.039V85.2857C369.211 85.0526 369.313 84.805 369.517 84.5427C369.721 84.2805 369.954 84.1203 370.216 84.062C371.557 83.7415 372.504 83.1879 373.057 82.4013C373.611 81.6146 373.887 80.4638 373.887 78.9487C373.887 77.0549 373.378 75.132 372.358 73.1799C371.338 71.257 370.042 69.5089 368.468 67.9356C366.924 66.3331 365.278 65.0657 363.53 64.1334C362.539 63.609 361.257 63.1719 359.684 62.8223C358.111 62.4435 356.639 62.2105 355.27 62.1231L351.38 75.4962C350.885 77.1569 350.637 78.8905 350.637 80.6969C350.637 82.6489 351.599 83.8143 353.522 84.1931C353.784 84.2514 354.017 84.3971 354.221 84.6301C354.454 84.8924 354.571 85.1546 354.571 85.4168V88.039C354.571 88.3595 354.44 88.6508 354.177 88.913C353.915 89.1753 353.624 89.3064 353.303 89.3064H333.069C332.748 89.3064 332.457 89.1753 332.195 88.913C331.933 88.6508 331.801 88.3595 331.801 88.039V85.2857C331.801 84.9652 331.933 84.6738 332.195 84.4116C332.457 84.1494 332.748 84.0183 333.069 84.0183C334.526 84.0183 335.895 83.0277 337.177 81.0465C338.488 79.0944 339.406 77.2298 339.93 75.4525L356.144 25.8932C356.61 24.6404 356.843 23.6935 356.843 23.0525C356.843 22.5281 356.756 22.1493 356.581 21.9162C356.435 21.654 356.173 21.4792 355.794 21.3918C355.59 21.3044 355.386 21.1296 355.183 20.8674C355.008 20.6051 354.92 20.3721 354.92 20.1681V17.4585C354.92 17.138 355.051 16.8467 355.314 16.5845C355.576 16.3222 355.867 16.1911 356.188 16.1911H382.366C382.686 16.1911 382.978 16.3222 383.24 16.5845C383.502 16.8467 383.633 17.138 383.633 17.4585V20.5614C383.633 20.8819 383.502 21.1733 383.24 21.4355C382.978 21.6977 382.686 21.8288 382.366 21.8288C381.812 21.8288 381.506 22.193 381.448 22.9214C381.448 23.2128 381.506 23.5624 381.623 23.9703L396.395 76.7636C396.832 78.4243 397.56 80.0413 398.58 81.6146C399.599 83.2171 400.809 84.0183 402.207 84.0183C402.528 84.0183 402.819 84.1494 403.081 84.4116C403.343 84.6738 403.474 84.9652 403.474 85.2857V88.039C403.474 88.3595 403.343 88.6508 403.081 88.913C402.819 89.1753 402.528 89.3064 402.207 89.3064ZM367.419 53.7758L362.918 36.7753L358.985 50.6291C362.015 51.037 364.826 52.0859 367.419 53.7758ZM402.207 88.039V85.2857C400.809 85.2857 399.454 84.5719 398.143 83.1442C396.861 81.7457 395.87 79.7354 395.171 77.1132L380.356 24.1888C380.239 23.6935 380.181 23.271 380.181 22.9214C380.181 22.5135 380.254 22.1347 380.399 21.7851C380.749 20.9693 381.404 20.5614 382.366 20.5614V17.4585H356.188V20.1681C356.45 20.2555 356.712 20.3721 356.974 20.5177C357.237 20.6634 357.484 20.9548 357.717 21.3918C357.98 21.8288 358.111 22.3824 358.111 23.0525C358.111 23.5187 358.038 24.0285 357.892 24.5821C357.834 24.8152 352.254 41.9031 341.154 75.8458C339.901 79.1964 338.605 81.6001 337.264 83.0568C335.953 84.5427 334.555 85.2857 333.069 85.2857V88.039H353.303V85.4168C352.546 85.2711 351.861 84.9943 351.249 84.5864C350.667 84.2077 350.142 83.5958 349.676 82.7509C349.472 82.3721 349.37 81.6875 349.37 80.6969C349.37 78.6865 349.632 76.8364 350.157 75.1466L354.352 60.812C355.722 60.812 357.426 61.045 359.465 61.5112C361.534 61.9482 363.093 62.4435 364.142 62.9971C366.851 64.4539 369.313 66.6536 371.528 69.5963C373.567 72.3059 374.732 74.7678 375.024 76.9821C375.111 77.4483 375.155 78.1038 375.155 78.9487C375.155 81.4835 374.368 83.319 372.795 84.4553C372.27 84.7758 371.498 85.0526 370.479 85.2857V88.039H402.207ZM369.605 56.9661C368.876 56.296 367.915 55.5822 366.72 54.8246C365.089 53.8632 363.588 53.1494 362.219 52.6832C360.849 52.1879 359.801 51.9257 359.072 51.8965C358.373 51.8383 357.79 51.8091 357.324 51.8091L362.962 32.0116L369.605 56.9661Z" fill="white"/>
<path d="M42.324 100.887H8.23556C7.75849 100.887 7.3248 100.691 6.93447 100.301C6.54415 99.9108 6.34898 99.4771 6.34898 99V95.8123C6.34898 95.3353 6.54415 94.9016 6.93447 94.5113C7.3248 94.1209 7.75849 93.9258 8.23556 93.9258C9.66675 93.9258 10.751 93.2535 11.4883 91.9091C12.2255 90.5646 12.5942 88.8949 12.5942 86.8999V29.0667C12.4207 25.4671 11.7051 23.407 10.4474 22.8866C9.79686 22.6264 8.95115 22.4312 7.91029 22.3011C7.51996 22.2144 7.15132 21.9758 6.80436 21.5855C6.50078 21.1952 6.34898 20.8049 6.34898 20.4145V17.2269C6.34898 16.7498 6.54415 16.3161 6.93447 15.9258C7.3248 15.5355 7.75849 15.3403 8.23556 15.3403H42.4541C42.9311 15.3403 43.3648 15.5355 43.7551 15.9258C44.1455 16.3161 44.3406 16.7498 44.3406 17.2269V20.4145C44.3406 20.7615 44.1888 21.1301 43.8853 21.5205C43.5817 21.9108 43.2781 22.1493 42.9745 22.2361C42.6709 22.3228 42.3673 22.3878 42.0637 22.4312C40.2856 22.7782 39.1797 24.0793 38.746 26.3345C38.6159 27.1585 38.5291 28.0042 38.4858 28.8716V86.4445C38.4858 88.3094 38.746 90.1093 39.2664 91.844C39.8736 93.2319 40.8928 93.9258 42.324 93.9258C42.801 93.9258 43.2347 94.1209 43.625 94.5113C44.0154 94.9016 44.2105 95.3353 44.2105 95.8123V99C44.2105 99.4771 44.0154 99.9108 43.625 100.301C43.2347 100.691 42.801 100.887 42.324 100.887ZM42.324 99V95.8123C41.4999 95.8123 40.7193 95.5955 39.982 95.1618C39.2447 94.7281 38.6159 94.2294 38.0954 93.6656C37.6184 93.0584 37.2497 92.1043 36.9895 90.8032C36.7293 89.4587 36.5992 88.0058 36.5992 86.4445V31.4737C36.5992 29.4354 36.6642 27.7873 36.7943 26.5296C36.9678 25.2719 37.3798 24.1226 38.0304 23.0818C38.5074 22.3445 39.0062 21.8024 39.5266 21.4554C40.0471 21.0651 41.0229 20.7181 42.4541 20.4145V17.2269H8.23556V20.4145C10.6209 20.7615 12.1605 21.4771 12.8544 22.5613C13.5917 23.6022 14.0471 24.8165 14.2205 26.2044C14.394 27.5488 14.4808 29.392 14.4808 31.734V86.8999C14.4808 88.2444 14.3723 89.4153 14.1555 90.4128C13.9386 91.367 13.5266 92.2777 12.9195 93.1451C11.7051 94.9233 10.1438 95.8123 8.23556 95.8123V99H42.324Z" fill="white"/>
<rect x="0.613636" y="107.387" width="133.773" height="3.68182" stroke="white" stroke-width="1.22727"/>
<rect x="335.659" y="107.387" width="133.773" height="3.68182" stroke="white" stroke-width="1.22727"/>
<rect x="0.613636" y="1.84118" width="468.818" height="3.68182" stroke="white" stroke-width="1.22727"/>
</svg>
